<?xml version="1.0" encoding="iso-8859-1"?>
<!-- Generator: Adobe Illustrator 21.1.0, SVG Export Plug-In . SVG Version: 6.00 Build 0)  -->
<svg version="1.1" id="Layer_1" xmlns="http://www.w3.org/2000/svg" xmlns:xlink="http://www.w3.org/1999/xlink" x="0px" y="0px"
	 viewBox="0 0 200 200" style="enable-background:new 0 0 200 200;" xml:space="preserve">
<style type="text/css">
	.st0{fill:none;stroke:#11A7ED;stroke-width:2.0439;stroke-linejoin:bevel;stroke-miterlimit:10;}
	.st1{fill:none;stroke:#11A7ED;stroke-width:2.1562;stroke-miterlimit:10;}
	.st2{fill:none;stroke:#11A7ED;stroke-width:2.1562;stroke-linejoin:bevel;stroke-miterlimit:10;}
	.st3{fill:#FFFFFF;}
	.st4{fill:#0FAFF1;}
</style>
<g id="big-tickets-icon_x60_82x82">
	<circle class="st0" cx="40.909" cy="40.909" r="39.887"/>
	<line class="st1" x1="42.745" y1="35.421" x2="39.132" y2="35.421"/>
	<line class="st1" x1="31.524" y1="11.836" x2="41.414" y2="21.726"/>
	<line class="st1" x1="35.328" y1="8.983" x2="48.071" y2="21.726"/>
	<line class="st1" x1="40.273" y1="7.271" x2="54.918" y2="21.726"/>
	<line class="st1" x1="54.918" y1="15.069" x2="48.452" y2="8.793"/>
	<polyline class="st1" points="35.898,40.746 37.61,41.317 44.077,41.317 45.789,40.746 	"/>
	<line class="st1" x1="52.914" y1="24.996" x2="53.207" y2="20.205"/>
	<polyline class="st1" points="29.465,34.05 30.192,45.121 40.843,49.306 51.685,45.121 52.361,34.054 	"/>
	<polyline class="st1" points="34.377,14.689 28.48,19.063 28.847,24.641 	"/>
	<line class="st1" x1="30.382" y1="13.167" x2="27.339" y2="15.45"/>
	<path class="st1" d="M43.696,27.432"/>
	<path class="st1" d="M44.838,32.948"/>
	<line class="st1" x1="36.659" y1="28.193" x2="45.028" y2="28.193"/>
	<polyline class="st1" points="50.544,24.579 55.489,24.579 55.489,29.515 	"/>
	<polyline class="st1" points="31.714,24.579 26.573,24.579 26.573,29.486 	"/>
	<path class="st1" d="M36.659,56.343"/>
	<polyline class="st2" points="50.544,45.502 42.745,57.484 51.685,53.68 55.679,60.908 53.207,46.453 51.875,41.127 	"/>
	<polyline class="st2" points="31.333,45.502 39.132,57.484 30.002,53.68 26.008,60.908 28.48,46.453 29.812,41.127 	"/>
	<polyline class="st2" points="42.745,57.484 40.843,64.141 39.132,57.484 	"/>
	<polyline class="st2" points="27.339,51.017 6.95,56.621 5.558,59.477 	"/>
	<polyline class="st2" points="54.348,51.017 74.924,56.621 76.48,59.156 	"/>
	<polyline class="st2" points="28.48,57.484 40.843,67.375 53.777,57.484 	"/>
	<circle class="st1" cx="31.524" cy="29.525" r="4.945"/>
	<circle class="st1" cx="50.544" cy="29.525" r="4.945"/>
</g>
<g id="ticket-closed_x60_23x23">
	<circle class="st3" cx="11.466" cy="11.466" r="11.466"/>
	<g>
		<path class="st4" d="M10.011,16.231c-0.23,0-0.44-0.045-0.63-0.135c-0.19-0.09-0.37-0.21-0.54-0.36l-3.18-3.194
			c-0.16-0.16-0.28-0.343-0.36-0.548s-0.12-0.412-0.12-0.622s0.04-0.415,0.12-0.615s0.2-0.375,0.36-0.525
			c0.159-0.159,0.342-0.282,0.547-0.367s0.413-0.128,0.623-0.128s0.415,0.043,0.615,0.128c0.199,0.085,0.38,0.208,0.539,0.367
			l2.025,2.025l5.115-5.13c0.16-0.16,0.34-0.28,0.54-0.36s0.407-0.12,0.622-0.12s0.423,0.04,0.623,0.12
			c0.199,0.08,0.38,0.2,0.54,0.36c0.159,0.16,0.277,0.34,0.353,0.54c0.074,0.2,0.112,0.407,0.112,0.622
			c0,0.216-0.038,0.423-0.112,0.623c-0.075,0.2-0.193,0.38-0.353,0.54l-6.285,6.284c-0.15,0.15-0.322,0.271-0.518,0.36
			S10.241,16.231,10.011,16.231z"/>
	</g>
</g>
<g id="ticket-open_x60_27x23">
	<rect class="st3" width="26.452" height="16.599"/>
	<polygon class="st3" points="15.199,16.209 21.287,22.297 21.287,15.516 	"/>
	<circle class="st4" cx="6.583" cy="8.934" r="1.783"/>
	<circle class="st4" cx="13.216" cy="8.934" r="1.783"/>
	<circle class="st4" cx="19.848" cy="8.934" r="1.783"/>
</g>
</svg>
