<?xml version="1.0" encoding="iso-8859-1"?>
<!-- Generator: Adobe Illustrator 21.1.0, SVG Export Plug-In . SVG Version: 6.00 Build 0)  -->
<svg version="1.1" id="Layer_1" xmlns="http://www.w3.org/2000/svg" xmlns:xlink="http://www.w3.org/1999/xlink" x="0px" y="0px"
	 viewBox="0 0 200 200" style="enable-background:new 0 0 200 200;" xml:space="preserve">
<style type="text/css">
	.st0{fill:none;stroke:#11A7ED;stroke-width:2.0439;stroke-linejoin:bevel;stroke-miterlimit:10;}
	.st1{fill:none;stroke:#11A7ED;stroke-width:2.1562;stroke-miterlimit:10;}
	.st2{fill:none;stroke:#11A7ED;stroke-width:2.1562;stroke-linejoin:bevel;stroke-miterlimit:10;}
</style>
<g id="big-tickets-icon_x60_82x82">
	<circle class="st0" cx="40.909" cy="40.909" r="39.887"/>
	<line class="st1" x1="42.745" y1="35.421" x2="39.132" y2="35.421"/>
	<line class="st1" x1="31.524" y1="11.836" x2="41.414" y2="21.726"/>
	<line class="st1" x1="35.328" y1="8.983" x2="48.071" y2="21.726"/>
	<line class="st1" x1="40.273" y1="7.271" x2="54.918" y2="21.726"/>
	<line class="st1" x1="54.918" y1="15.069" x2="48.452" y2="8.793"/>
	<polyline class="st1" points="35.898,40.746 37.61,41.317 44.077,41.317 45.789,40.746 	"/>
	<line class="st1" x1="52.914" y1="24.996" x2="53.207" y2="20.205"/>
	<polyline class="st1" points="29.465,34.05 30.192,45.121 40.843,49.306 51.685,45.121 52.361,34.054 	"/>
	<polyline class="st1" points="34.377,14.689 28.48,19.063 28.847,24.641 	"/>
	<line class="st1" x1="30.382" y1="13.167" x2="27.339" y2="15.45"/>
	<path class="st1" d="M43.696,27.432"/>
	<path class="st1" d="M44.838,32.948"/>
	<line class="st1" x1="36.659" y1="28.193" x2="45.028" y2="28.193"/>
	<polyline class="st1" points="50.544,24.579 55.489,24.579 55.489,29.515 	"/>
	<polyline class="st1" points="31.714,24.579 26.573,24.579 26.573,29.486 	"/>
	<path class="st1" d="M36.659,56.343"/>
	<polyline class="st2" points="50.544,45.502 42.745,57.484 51.685,53.68 55.679,60.908 53.207,46.453 51.875,41.127 	"/>
	<polyline class="st2" points="31.333,45.502 39.132,57.484 30.002,53.68 26.008,60.908 28.48,46.453 29.812,41.127 	"/>
	<polyline class="st2" points="42.745,57.484 40.843,64.141 39.132,57.484 	"/>
	<polyline class="st2" points="27.339,51.017 6.95,56.621 5.558,59.477 	"/>
	<polyline class="st2" points="54.348,51.017 74.924,56.621 76.48,59.156 	"/>
	<polyline class="st2" points="28.48,57.484 40.843,67.375 53.777,57.484 	"/>
	<circle class="st1" cx="31.524" cy="29.525" r="4.945"/>
	<circle class="st1" cx="50.544" cy="29.525" r="4.945"/>
</g>
</svg>
